<svg xmlns="http://www.w3.org/2000/svg" viewBox="0 0 512 512" role="img" aria-label="deployit">
  <title>deployit</title>
  <rect x="0" y="0" width="512" height="512" rx="112" fill="#2563eb"/>
  <g>
    <rect x="150" y="132" width="200" height="320" rx="28" fill="#ffffff"/>
    <rect x="160" y="168" width="180" height="248" rx="10" fill="#dbeafe"/>
    <rect x="222" y="146" width="56" height="10" rx="5" fill="#cbd5e1"/>
    <rect x="218" y="426" width="64" height="5" rx="2" fill="#cbd5e1"/>
  </g>
  <g transform="translate(320, 230) rotate(-22)">
    <path d="M -22 60 L 0 120 L 22 60 L 10 72 L 0 80 L -10 72 Z" fill="#f59e0b"/>
    <path d="M -12 60 L 0 98 L 12 60 L 5 68 L 0 74 L -5 68 Z" fill="#fbbf24"/>
    <rect x="-32" y="-90" width="64" height="152" rx="16" fill="#ffffff" stroke="#1e3a8a" stroke-width="4"/>
    <path d="M -32 -78 L 0 -160 L 32 -78 Z" fill="#ffffff" stroke="#1e3a8a" stroke-width="4" stroke-linejoin="round"/>
    <circle cx="0" cy="-36" r="20" fill="#2563eb" stroke="#1e3a8a" stroke-width="4"/>
    <path d="M -32 20 L -58 66 L -32 56 Z" fill="#ef4444" stroke="#1e3a8a" stroke-width="4" stroke-linejoin="round"/>
    <path d="M  32 20 L  58 66 L  32 56 Z" fill="#ef4444" stroke="#1e3a8a" stroke-width="4" stroke-linejoin="round"/>
  </g>
</svg>
